
        <svg xmlns="http://www.w3.org/2000/svg" xmlns:xlink="http://www.w3.org/1999/xlink" version="1.1" width="3171.4285714285716" height="2179.3007991411773" viewBox="0 0 3171.4285714285716 2179.3007991411773">
			
			<g transform="scale(8.57142857142857) translate(10, 10)">
				<defs id="SvgjsDefs7632"><linearGradient id="SvgjsLinearGradient7639"><stop id="SvgjsStop7640" stop-color="#8f5e25" offset="0"/><stop id="SvgjsStop7641" stop-color="#fbf4a1" offset="0.5"/><stop id="SvgjsStop7642" stop-color="#8f5e25" offset="1"/></linearGradient><linearGradient id="SvgjsLinearGradient7643"><stop id="SvgjsStop7644" stop-color="#8f5e25" offset="0"/><stop id="SvgjsStop7645" stop-color="#fbf4a1" offset="0.5"/><stop id="SvgjsStop7646" stop-color="#8f5e25" offset="1"/></linearGradient><linearGradient id="SvgjsLinearGradient7647"><stop id="SvgjsStop7648" stop-color="#8f5e25" offset="0"/><stop id="SvgjsStop7649" stop-color="#fbf4a1" offset="0.5"/><stop id="SvgjsStop7650" stop-color="#8f5e25" offset="1"/></linearGradient></defs><g id="SvgjsG7633" featureKey="symbolFeature-0" transform="matrix(2.7783290671910597,0,0,2.7783290671910597,105,-5.273268574827873)" fill="#fff"><path xmlns="http://www.w3.org/2000/svg" d="M23.94,38.405c0.08,0.38,0.07,0.775-0.037,1.155c-0.095,0.354-0.288,0.687-0.55,0.967c-0.888,0.899-2.341,0.92-3.248,0.045  l-4.5-4.389l-0.866,1.06l4.501,4.395c1.229,1.194,3.899,1.116,5.105-0.108c0.42-0.427,1.01-1.396,1.136-1.959l11.861,0.01  c1.278,0,2.541,1.192,2.541,2.462c0,1.287-0.836,2.859-2.594,2.859H18.284c-0.822-0.03-1.847-0.45-2.565-1.055l-9.927-7.453  l-5.781,0.025L0,27.766h0.05v-0.078h11.532c0,0,1.208,0.027,2.04,0.51c0.766,0.447,1.447,1.103,1.447,1.103l8.231,7.993  C23.613,37.595,23.833,37.977,23.94,38.405z"/><path xmlns="http://www.w3.org/2000/svg" d="M46.037,25.761c0.079-0.149,0.18-0.29,0.239-0.455c0.391-1.05,0.34-2.199-0.145-3.236c-0.436-0.927-1.2-1.692-2.135-2.154  c0.105-1.902-1.114-3.717-3.099-4.411c-0.925-0.32-1.93-0.35-2.854-0.105c-0.552-0.762-1.343-1.352-2.279-1.677  c-0.521-0.183-1.061-0.272-1.608-0.272c-1.799,0-3.419,1.01-4.129,2.552c-1.864,0.042-3.519,1.165-4.137,2.816  c-0.173,0.463-0.259,0.945-0.262,1.428c-1.682,0.189-3.134,1.262-3.704,2.791c-0.335,0.893-0.33,1.845-0.045,2.725H17.28  l9.749,11.207h14.034l9.327-11.207H46.037z M23.976,23.802c0.37-0.989,1.571-1.584,2.738-1.339l1.977,0.415l-0.733-1.883  c-0.181-0.467-0.188-0.952-0.016-1.407c0.359-0.97,1.496-1.575,2.668-1.354l1.064,0.19l0.203-1.064  c0.022-0.107,0.048-0.215,0.087-0.317c0.408-1.093,1.833-1.688,3.083-1.25c0.695,0.24,1.238,0.742,1.485,1.375l0.455,1.149  l1.087-0.59c0.622-0.335,1.403-0.397,2.104-0.152c1.215,0.42,1.895,1.614,1.539,2.714l-0.359,1.109l1.135,0.285  c0.069,0.018,0.14,0.035,0.22,0.065c0.645,0.222,1.164,0.68,1.439,1.255c0.229,0.494,0.255,1.044,0.069,1.539  c-0.209,0.567-0.68,1-1.299,1.22H24.317C23.87,25.186,23.732,24.457,23.976,23.802z"/><polygon xmlns="http://www.w3.org/2000/svg" points="29.636,13.455 28.45,13.455 28.45,6.617 29.636,6.617 29.636,13.455 "/><polygon xmlns="http://www.w3.org/2000/svg" points="33.155,10.976 31.969,10.976 31.969,1.898 33.155,1.898 33.155,10.976 "/><polygon xmlns="http://www.w3.org/2000/svg" points="36.675,11.615 35.488,11.615 35.488,5.817 36.675,5.817 36.675,11.615 "/></g><g id="SvgjsG7634" featureKey="nameFeature-0" transform="matrix(1.3104734812171335,0,0,1.3104734812171335,-1.0483796598091377,128.04444214694013)" fill="#fff"><path d="M40.72 41 c-3.8 3.08 -7.48 4.16 -11.2 4.16 c-7.76 0 -15.52 -4.72 -24.32 -5.08 l-4.4 0 l0 -0.28 c1.96 0 2.72 -0.04 2.72 -1.88 l0 -20.96 c0 -1.84 -0.76 -1.88 -2.72 -1.88 l0 -0.28 l7.12 0 l0 0.28 c-1.92 0 -2.72 0.04 -2.72 1.88 l0 20.88 c0 1.56 0.56 1.84 1.92 1.96 c0.2 0.04 0.4 0.04 0.6 0.04 c0.08 0.04 0.12 0.04 0.2 0.04 l-0.08 0 c7.8 0.64 15.16 3.76 22.32 3.76 c3.52 0 6.96 -0.76 10.4 -2.88 z M21.909 37.88 c0 1.84 0.8 1.88 2.76 1.88 l0 0.28 l-7.16 0 l0 -0.28 c1.96 0 2.76 -0.04 2.76 -1.88 l0 -20.96 c0 -1.84 -0.8 -1.88 -2.76 -1.88 l0 -0.28 l7.16 0 l0 0.28 c-1.96 0 -2.76 0.04 -2.76 1.88 l0 20.96 z M48.818 39.16 c3.72 4.16 7.92 7.04 13.24 7.04 l0 0.2 c-16.08 0 -22.4 -19.04 -31.84 -29.88 l0 21.4 c0 1.84 1.44 1.84 2.76 1.84 l0 0.32 l-6 0 l0 -0.32 c1.28 0 2.72 0 2.72 -1.84 l0 -22.04 c-3.64 -4 -7.72 -6.76 -13.04 -6.76 l0 -0.2 c15.52 0 22.2 18.72 31.6 29.64 l0 -21.6 c0 -1.84 -1.44 -1.88 -2.76 -1.88 l0 -0.28 l6.08 0 l0 0.28 c-1.32 0 -2.76 0.04 -2.76 1.88 l0 22.2 z M58.367 36.6 c-1.24 2.92 -0.44 3.16 1.92 3.16 l0 0.28 l-6.64 0 l0 -0.28 c2.12 0 2.68 0 3.72 -2.36 l10.2 -23.12 l0.2 0 l10.24 23.04 c1.04 2.08 1.32 2.44 3.52 2.44 l0 0.28 l-6.52 0 l0 -0.28 c2.32 0 2.32 -0.28 0.84 -3.64 l-2.84 -6.32 l-11.64 0 z M67.167 16.68 l-5.6 12.6 l11.24 0 z M102.67600000000002 33.12 c0 4.96 -4.28 7.48 -8.96 7.48 c-2.28 0 -4.64 -0.56 -6.64 -1.76 l0.04 0.04 c-1.2 -0.72 -2 -1.08 -2.56 -1.08 c-0.76 0 -1 0.72 -1.2 2.24 l-0.24 0 l0 -8.32 l0.24 0 c1 5.64 5.72 8.32 10.08 8.32 c3.92 0 7.52 -2.24 7.52 -6.52 c0 -3.96 -3.6 -5.28 -7.44 -6.4 l-1.52 -0.48 c-3.84 -1.12 -7.44 -2.44 -7.44 -6.4 c0 -4.04 3.8 -5.96 7.88 -5.96 c1.52 0 3.08 0.28 4.48 0.8 c1.4 0.48 2.24 0.88 2.76 0.88 c0.48 0 0.72 -0.32 0.92 -1.16 l0.2 0 l0 6.8 l-0.2 0 c-0.52 -4.8 -4.44 -6.84 -8.12 -6.84 c-3.56 0 -6.88 1.84 -6.88 4.88 c0 7.56 17.08 3.84 17.08 13.48 z M121.38500000000002 11.2 c-20 0 -18.68 22.88 -6 25.04 l0 0.28 c-14.72 -1 -16.76 -25.76 6 -25.76 c9.32 0 15.72 1.24 21.48 1.24 c4.6 0 8.8 -0.8 13.84 -3.64 l0.16 0.24 c-4.76 3.64 -9.36 4.72 -14.08 4.72 c-6.68 0 -13.56 -2.12 -21.4 -2.12 z M120.54500000000002 37.48 c0 1.8 0.8 2.32 2.76 2.32 l0 0.28 l-7.16 0 l0 -0.28 c1.96 0 2.76 -0.52 2.76 -2.32 l0 -20.52 c0 -1.84 -0.8 -1.88 -2.76 -1.88 l0 -0.28 l4.4 0 l0 11.72 l5.92 0 c1.84 0 2.36 -0.44 2.68 -1.8 l0.2 0 l0 4.08 l-0.2 0 c-0.32 -1.4 -0.84 -1.8 -2.68 -1.8 l-5.92 0 l0 10.48 z M145.174 14.239999999999998 c16.92 0 16.92 26.36 0 26.36 c-16.96 0 -16.96 -26.36 0 -26.36 z M144.334 15.04 c-15.04 0 -13.36 24.76 1.64 24.76 s13.44 -24.76 -1.64 -24.76 z M172.203 14.239999999999998 c16.92 0 16.92 26.36 0 26.36 c-16.96 0 -16.96 -26.36 0 -26.36 z M171.363 15.04 c-15.04 0 -13.36 24.76 1.64 24.76 s13.44 -24.76 -1.64 -24.76 z M199.152 14.760000000000002 c16.72 0 16.72 25.28 0 25.28 l-11.44 0 l0 -0.28 c1.96 0 2.76 -0.52 2.76 -2.32 l0 -20.08 c0 -1.8 -0.8 -2.32 -2.76 -2.32 l0 -0.28 l11.44 0 z M192.112 37.36 c0 1.8 0.76 2.24 2.72 2.24 l4.32 0 c14.28 0 14.32 -24.4 0 -24.4 l-7.04 0 l0 22.16 z M219.701 37.88 c0 1.84 0.8 1.88 2.76 1.88 l0 0.28 l-7.16 0 l0 -0.28 c1.96 0 2.76 -0.04 2.76 -1.88 l0 -20.96 c0 -1.84 -0.8 -1.88 -2.76 -1.88 l0 -0.28 l7.16 0 l0 0.28 c-1.96 0 -2.76 0.04 -2.76 1.88 l0 20.96 z M246.41 34 l0.32 0.04 l-1.76 6 l-19.72 0 l0 -0.28 c1.96 0 2.76 -0.04 2.76 -1.88 l0 -20.96 c0 -1.84 -0.8 -1.88 -2.76 -1.88 l0 -0.28 l18.36 0 l1.76 6 l-0.32 0.08 c-1.72 -5.52 -2.04 -5.64 -5.68 -5.64 l-9.72 0 l0 11.28 l5.92 0 c1.84 0 2.36 -0.4 2.68 -1.8 l0.2 0 l0 4.08 l-0.2 0 c-0.32 -1.4 -0.84 -1.8 -2.68 -1.8 l-5.92 0 l0 10.84 c0 1.6 0.6 1.76 2.04 1.8 l9.04 0 c4 0 3.96 -0.32 5.68 -5.6 z M267.879 33.12 c0 4.96 -4.28 7.48 -8.96 7.48 c-2.28 0 -4.64 -0.56 -6.64 -1.76 l0.04 0.04 c-1.2 -0.72 -2 -1.08 -2.56 -1.08 c-0.76 0 -1 0.72 -1.2 2.24 l-0.24 0 l0 -8.32 l0.24 0 c1 5.64 5.72 8.32 10.08 8.32 c3.92 0 7.52 -2.24 7.52 -6.52 c0 -3.96 -3.6 -5.28 -7.44 -6.4 l-1.52 -0.48 c-3.84 -1.12 -7.44 -2.44 -7.44 -6.4 c0 -4.04 3.8 -5.96 7.88 -5.96 c1.52 0 3.08 0.28 4.48 0.8 c1.4 0.48 2.24 0.88 2.76 0.88 c0.48 0 0.72 -0.32 0.92 -1.16 l0.2 0 l0 6.8 l-0.2 0 c-0.52 -4.8 -4.44 -6.84 -8.12 -6.84 c-3.56 0 -6.88 1.84 -6.88 4.88 c0 7.56 17.08 3.84 17.08 13.48 z"/></g><g id="SvgjsG7635" featureKey="sloganFeature-0" transform="matrix(1.4298846458253511,0,0,1.4298846458253511,33.1125521925101,200.50648512197876)" fill="#fff"><path d="M1.32 20 l0 -14 l4.14 0 c3.92 0 7.12 3.12 7.12 6.98 c0 3.88 -3.2 7.02 -7.12 7.02 l-4.14 0 z M3.46 19.38 l2 0 c2.58 0 4.72 -2.88 4.72 -6.4 s-2.14 -6.36 -4.72 -6.36 l-2 0 l0 12.76 z M4.78 22.14 l0.5 -0.18 c0.38 -0.14 0.66 -0.42 0.8 -0.8 l0.16 -0.5 l0.16 0.5 c0.14 0.38 0.44 0.66 0.82 0.8 l0.5 0.18 l-0.5 0.14 c-0.38 0.1 -0.7 0.46 -0.82 0.82 l-0.16 0.5 l-0.16 -0.5 c-0.12 -0.36 -0.42 -0.72 -0.8 -0.82 z M17.96 20 l0 -14 l8.74 0 l0 0.92 l-6.62 0 l0 5.76 l2.96 0 l0 0.96 l-2.96 0 l0 5.42 l6.62 0 l0 0.94 l-8.74 0 z M31.5 20 l0 -14 l2.14 0 l0 13.06 l6.64 0 l0 0.94 l-8.78 0 z M38.14 17.16 l0 -11.16 l2.14 0 l0 11.16 l-2.14 0 z M57.22 16.18 l1.62 0 c-1.16 2.28 -3.58 3.88 -6.32 3.88 c-3.94 0 -7.14 -3.18 -7.14 -7.1 s3.2 -7.02 7.14 -7.02 c2.72 0 5.08 1.52 6.26 3.76 l-2.74 0 c-1.16 -1.82 -2.9 -2.96 -4.58 -2.96 c-2.34 0 -3.64 2.02 -3.64 4.6 c0 4.3 2.98 8.02 5.76 8.02 c1.8 0 3.08 -1.46 3.64 -3.18 z M64.08 20 l0 -14 l2.14 0 l0 14 l-2.14 0 z M71.64 12.96 c0 -3.92 3.2 -7.02 7.12 -7.02 c3.94 0 7.14 3.1 7.14 7.02 s-3.2 7.1 -7.14 7.1 c-3.92 0 -7.12 -3.18 -7.12 -7.1 z M79.82 19.36 c2.52 0 3.88 -2.64 3.88 -5.06 c0 -4.28 -3.16 -7.58 -5.98 -7.58 c-2.38 0 -3.66 2.02 -3.66 4.6 c0 4.28 2.94 8.04 5.76 8.04 z M91.08 12.96 l0 -6.96 l2.14 0 l0 6.94 c0 3.48 2.02 5.28 4.6 5.28 s4.46 -1.8 4.46 -5.28 l0 -6.94 l0.88 0 l0 6.94 c0 4.12 -1.92 7.12 -6.06 7.12 c-4.02 0 -6.02 -3.1 -6.02 -7.1 z M108.28 18.74 l0.36 -0.88 c0.76 0.28 2.76 0.94 4.58 0.94 c1.52 0 2.98 -0.66 2.98 -1.64 c0 -1.44 -3.08 -3.1 -4.18 -3.78 c-1.4 -0.86 -3.52 -2.16 -3.52 -3.94 c0 -3.18 3.44 -3.5 4.56 -3.5 c1.16 0 2.32 0.22 3.56 0.7 l-0.2 0.66 c-0.74 -0.32 -1.94 -0.74 -3.1 -0.74 c-1.04 0 -2.94 0.62 -2.94 1.9 c0.02 1.34 2.86 2.52 5.74 4.5 c1.76 1.22 2.58 2.68 2.58 3.94 c0 1.76 -1.64 3.16 -4.42 3.16 c-3.48 0 -5.84 -1.24 -6 -1.32 z M136.32000000000002 22.14 l0.5 -0.18 c0.38 -0.14 0.66 -0.42 0.8 -0.8 l0.16 -0.5 l0.16 0.5 c0.14 0.38 0.44 0.66 0.82 0.8 l0.5 0.18 l-0.5 0.14 c-0.38 0.1 -0.7 0.46 -0.82 0.82 l-0.16 0.5 l-0.16 -0.5 c-0.12 -0.36 -0.42 -0.72 -0.8 -0.82 z M132.76000000000002 20 l0 -14 l5.82 0 c1.96 0 3.52 1.58 3.52 3.5 c0 1.26 -0.7 2.42 -1.68 2.98 c1.7 0.38 2.96 1.88 2.96 3.68 c0 2.1 -1.68 3.84 -3.82 3.84 l-6.8 0 z M134.92000000000002 19.3 l3.46 0 c1.78 0 3.14 -1.4 3.14 -3.14 c0 -1.7 -1.42 -3.12 -3.14 -3.12 l-3.46 0 l0 6.26 z M134.92000000000002 12.379999999999999 l3.12 0 c1.44 0 2.74 -1.32 2.74 -2.88 c0 -1.6 -1.28 -2.88 -2.84 -2.88 l-3.02 0 l0 5.76 z M148.78000000000003 20 l0 -14 l2.14 0 l0 14 l-2.14 0 z M161.16000000000003 20 l0 -13.08 l-5.38 0 l0 -0.92 l12.9 0 l0 0.92 l-5.4 0 l0 13.08 l-2.12 0 z M173.52000000000004 20 l0 -14 l8.74 0 l0 0.92 l-6.62 0 l0 5.76 l2.96 0 l0 0.96 l-2.96 0 l0 5.42 l6.62 0 l0 0.94 l-8.74 0 z M186.72000000000003 18.74 l0.36 -0.88 c0.76 0.28 2.76 0.94 4.58 0.94 c1.52 0 2.98 -0.66 2.98 -1.64 c0 -1.44 -3.08 -3.1 -4.18 -3.78 c-1.4 -0.86 -3.52 -2.16 -3.52 -3.94 c0 -3.18 3.44 -3.5 4.56 -3.5 c1.16 0 2.32 0.22 3.56 0.7 l-0.2 0.66 c-0.74 -0.32 -1.94 -0.74 -3.1 -0.74 c-1.04 0 -2.94 0.62 -2.94 1.9 c0.02 1.34 2.86 2.52 5.74 4.5 c1.76 1.22 2.58 2.68 2.58 3.94 c0 1.76 -1.64 3.16 -4.42 3.16 c-3.48 0 -5.84 -1.24 -6 -1.32 z"/></g>
			</g>
		</svg>
	